<?xml version="1.0"?>
<svg version="1.1" xmlns="http://www.w3.org/2000/svg" width="283" height="118" style=""><path fill="#9433c4" d="M18.076171875,101.08984375q-0.048828125-1.46484375-0.048828125-2.9296875q0-4.58984375,0.48828125-9.228515625q0.5859375-6.15234375,0.78125-12.109375q0.1953125-6.982421875,0.5859375-14.501953125q0.244140625-4.1015625,0.244140625-8.10546875q0-3.271484375-0.146484375-6.494140625q0.48828125-1.123046875,1.2939453125-1.513671875t2.0263671875-0.390625q0.5859375,0,1.2451171875,0.09765625t1.1474609375,0.48828125q0.68359375,0.09765625,1.6845703125,0.1953125t1.5380859375,0.5859375q0.1953125,0.29296875,1.0009765625,2.001953125t1.904296875,4.150390625t2.294921875,5.2978515625t2.294921875,5.419921875t1.904296875,4.5166015625t1.0009765625,2.44140625q4.58984375-8.30078125,8.984375-17.0654296875t9.619140625-16.5283203125q0.48828125-0.68359375,1.6845703125-1.0009765625t1.9775390625-0.3173828125q2.099609375,0,3.0517578125,1.0009765625t1.2451171875,2.5634765625q0.1953125,0.9765625,0.244140625,2.099609375q0.048828125,0.5859375-0.048828125,1.220703125q-0.1953125,1.806640625-0.1953125,3.41796875q0,11.376953125-0.78125,22.5830078125t-1.416015625,22.6318359375q-0.09765625,2.34375-0.09765625,4.8828125t0.09765625,5.2734375q0.048828125,0.9765625,0.048828125,1.904296875q0,4.296875-0.732421875,8.0078125q-0.68359375,1.123046875-2.24609375,1.416015625t-2.63671875,0.29296875q-2.294921875,0-4.39453125-1.07421875l-0.537109375-0.634765625l-0.1953125-0.78125t-0.09765625-0.78125q0-7.080078125,0.5126953125-14.2578125t1.1474609375-14.3310546875t1.3427734375-14.2822265625t1.1962890625-14.2578125q-2.880859375,4.78515625-5.5908203125,9.7412109375t-5.1025390625,10.0830078125q-0.87890625,2.001953125-1.6845703125,4.296875t-1.9287109375,4.1015625q-0.5859375,0.87890625-1.9775390625,1.07421875t-2.4169921875,0.1953125q-0.9765625,0-2.0263671875-0.341796875t-1.4404296875-1.46484375q-1.806640625-5.517578125-3.857421875-10.791015625t-4.150390625-10.693359375q0,3.61328125,0.146484375,9.3505859375t0.146484375,11.8896484375t-0.1953125,11.767578125t-0.927734375,8.88671875q-0.1953125,1.220703125-1.5869140625,1.513671875t-2.4169921875,0.29296875q-0.78125,0-1.4892578125-0.09765625t-1.3916015625-0.390625z M76.06787109375,35.123046875q0-0.9765625,1.513671875-1.3916015625t2.490234375-0.4150390625q1.123046875,0,2.4658203125,0.29296875t1.6357421875,1.513671875q1.416015625,5.712890625,2.1728515625,11.6455078125t1.1474609375,11.9384765625t0.634765625,11.9384765625t0.537109375,11.7431640625q1.318359375-5.810546875,2.7099609375-11.5478515625t3.6376953125-11.4501953125l0-3.90625q0-2.490234375,1.7333984375-3.5888671875t4.6630859375-1.0986328125q0.29296875,0,1.3427734375,0.146484375t1.0498046875,0.9765625q-0.1953125,0.5859375-0.4638671875,1.123046875t-0.2685546875,1.171875q0,7.421875,1.7578125,15.2099609375t3.466796875,15.1611328125q0.9765625-6.298828125,2.24609375-12.548828125t2.63671875-12.451171875q1.806640625-8.30078125,2.7587890625-13.7939453125t1.806640625-8.69140625t1.85546875-4.541015625t2.8076171875-1.3427734375q1.123046875-0.09765625,2.099609375,0.390625t0.78125,1.611328125q-3.515625,16.9921875-6.5673828125,34.08203125t-6.2255859375,34.1796875q0,0.9765625,0.341796875,2.294921875t0.341796875,2.34375q0,0.5859375-0.537109375,0.9765625t-1.2939453125,0.6591796875t-1.66015625,0.3662109375t-1.5869140625,0.09765625q-1.513671875,0-3.173828125-0.4638671875t-2.1484375-2.6611328125q-1.708984375-7.6171875-3.1494140625-15.3076171875t-2.6611328125-15.5029296875q-0.390625,1.806640625-0.732421875,3.662109375t-0.634765625,3.759765625q-1.416015625,8.30078125-3.125,16.6015625t-1.708984375,16.796875q0,2.099609375-0.87890625,2.7099609375t-2.978515625,0.6103515625q-1.611328125,0-2.734375-0.537109375q-0.87890625-0.48828125-1.66015625-0.87890625q-0.68359375-0.390625-1.2451171875-0.9033203125t-0.5615234375-1.0009765625q-0.78125-10.595703125-1.0986328125-21.044921875t-0.7080078125-21.044921875q-0.390625-9.521484375-1.1474609375-19.0185546875t-1.6845703125-18.8720703125z"/><path fill="#d3abeb" d="M138.41455078125,72.8896484375q-0.01611328125-0.4833984375-0.01611328125-0.966796875q0-1.5146484375,0.1611328125-3.04541015625q0.193359375-2.0302734375,0.2578125-3.99609375q0.064453125-2.30419921875,0.193359375-4.78564453125q0.08056640625-1.353515625,0.08056640625-2.6748046875q0-1.07958984375-0.04833984375-2.14306640625q0.1611328125-0.37060546875,0.427001953125-0.49951171875t0.668701171875-0.12890625q0.193359375,0,0.410888671875,0.0322265625t0.378662109375,0.1611328125q0.2255859375,0.0322265625,0.555908203125,0.064453125t0.507568359375,0.193359375q0.064453125,0.0966796875,0.330322265625,0.66064453125t0.62841796875,1.36962890625t0.75732421875,1.748291015625t0.75732421875,1.78857421875t0.62841796875,1.490478515625t0.330322265625,0.8056640625q1.5146484375-2.7392578125,2.96484375-5.631591796875t3.17431640625-5.454345703125q0.1611328125-0.2255859375,0.555908203125-0.330322265625t0.652587890625-0.104736328125q0.69287109375,0,1.007080078125,0.330322265625t0.410888671875,0.845947265625q0.064453125,0.322265625,0.08056640625,0.69287109375q0.01611328125,0.193359375-0.01611328125,0.40283203125q-0.064453125,0.59619140625-0.064453125,1.1279296875q0,3.75439453125-0.2578125,7.452392578125t-0.46728515625,7.468505859375q-0.0322265625,0.7734375-0.0322265625,1.611328125t0.0322265625,1.740234375q0.01611328125,0.322265625,0.01611328125,0.62841796875q0,1.41796875-0.24169921875,2.642578125q-0.2255859375,0.37060546875-0.7412109375,0.46728515625t-0.8701171875,0.0966796875q-0.75732421875,0-1.4501953125-0.3544921875l-0.17724609375-0.20947265625l-0.064453125-0.2578125t-0.0322265625-0.2578125q0-2.33642578125,0.169189453125-4.705078125t0.378662109375-4.729248046875t0.443115234375-4.713134765625t0.394775390625-4.705078125q-0.95068359375,1.5791015625-1.844970703125,3.214599609375t-1.683837890625,3.327392578125q-0.2900390625,0.66064453125-0.555908203125,1.41796875t-0.636474609375,1.353515625q-0.193359375,0.2900390625-0.652587890625,0.3544921875t-0.797607421875,0.064453125q-0.322265625,0-0.668701171875-0.11279296875t-0.475341796875-0.4833984375q-0.59619140625-1.82080078125-1.27294921875-3.56103515625t-1.36962890625-3.52880859375q0,1.1923828125,0.04833984375,3.085693359375t0.04833984375,3.923583984375t-0.064453125,3.88330078125t-0.30615234375,2.9326171875q-0.064453125,0.40283203125-0.523681640625,0.49951171875t-0.797607421875,0.0966796875q-0.2578125,0-0.491455078125-0.0322265625t-0.459228515625-0.12890625z M157.56792480469,60.85302734375l0-1.24072265625l0-1.27294921875q0.01611328125-1.2890625,0.104736328125-2.473388671875t0.249755859375-1.973876953125q0.0966796875-0.43505859375,0.580078125-0.53173828125t0.837890625-0.0966796875q0.66064453125,0,0.974853515625,0.1611328125t0.410888671875,0.459228515625t0.08056640625,0.708984375t-0.01611328125,0.942626953125q0,0.75732421875-0.0322265625,2.11083984375t-0.04833984375,2.9970703125l0,0.82177734375q0,1.24072265625,0.0322265625,2.56201171875q0.04833984375,1.7724609375,0.185302734375,3.391845703125t0.378662109375,2.91650390625t0.6767578125,1.989990234375q0.69287109375-0.62841796875,1.3857421875-1.764404296875t1.3212890625-2.553955078125t1.200439453125-2.989013671875t1.039306640625-3.069580078125t0.797607421875-2.81982421875t0.491455078125-2.23974609375q0.2578125-1.3212890625,0.346435546875-2.69091796875t0.088623046875-3.04541015625q0.49951171875-0.59619140625,0.7734375-0.749267578125t0.8701171875-0.153076171875q0.2900390625,0,0.588134765625,0.04833984375t0.572021484375,0.2255859375l0.2255859375,0.3544921875l0,0.40283203125q0,2.9326171875-0.281982421875,5.953857421875t-0.59619140625,6.07470703125t-0.59619140625,6.123046875t-0.281982421875,6.098876953125q0,0.46728515625,0.040283203125,0.990966796875t0.169189453125,0.990966796875l-0.064453125,0.193359375q-0.2255859375,0.37060546875-0.7412109375,0.46728515625t-0.88623046875,0.0966796875q-0.78955078125,0-1.184326171875-0.233642578125t-0.523681640625-0.64453125t-0.11279296875-0.95068359375t0.01611328125-1.168212890625q0-2.17529296875,0.193359375-4.423095703125t0.46728515625-4.423095703125q-0.2578125,0.75732421875-0.6123046875,1.828857421875t-0.829833984375,2.14306640625t-1.103759765625,1.9658203125t-1.3857421875,1.281005859375l0.0322265625-0.0322265625l-0.12890625,0.064453125l0.0322265625,0q-0.46728515625,0.2578125-0.862060546875,0.346435546875t-0.926513671875,0.088623046875q-1.0634765625,0-1.764404296875-0.62841796875t-1.135986328125-1.619384765625t-0.64453125-2.2236328125t-0.298095703125-2.473388671875t-0.088623046875-2.360595703125l0-1.844970703125q0-0.88623046875-0.01611328125-2.11083984375z M163.30425292969,73.67919921875q0.0322265625,0,0.0322265625-0.0322265625l0.0322265625,0q-0.0322265625,0.0322265625-0.064453125,0.0322265625z M174.98106445312,72.4384765625q0-0.56396484375,0.38671875-0.717041015625t0.837890625-0.153076171875q0.78955078125,0,1.33740234375,0.708984375t1.039306640625,1.554931640625t0.974853515625,1.554931640625t1.14404296875,0.708984375q0.49951171875,0,0.910400390625-0.249755859375t0.708984375-0.62841796875t0.459228515625-0.85400390625t0.1611328125-0.942626953125q0-1.224609375-0.491455078125-2.52978515625t-1.2568359375-2.69091796875t-1.619384765625-2.8359375t-1.611328125-2.94873046875t-1.2568359375-3.053466796875t-0.49951171875-3.134033203125q0-2.36865234375,1.41796875-3.673828125t3.73828125-1.30517578125q0.78955078125,0,1.59521484375,0.2255859375t1.482421875,0.6767578125t1.103759765625,1.11181640625t0.427001953125,1.546875q0,0.2900390625-0.427001953125,0.378662109375t-0.620361328125,0.088623046875q-0.2900390625,0-0.62841796875-0.072509765625t-0.43505859375-0.394775390625t-0.27392578125-0.7412109375t-0.443115234375-0.781494140625t-0.62841796875-0.62841796875t-0.797607421875-0.265869140625q-0.72509765625,0-1.232666015625,0.298095703125t-0.82177734375,0.797607421875t-0.46728515625,1.119873046875t-0.153076171875,1.281005859375q0,1.546875,0.53173828125,3.117919921875t1.3212890625,3.1259765625t1.716064453125,3.069580078125t1.716064453125,2.94873046875t1.3212890625,2.8037109375t0.53173828125,2.59423828125q0,1.095703125-0.515625,1.85302734375t-1.30517578125,1.232666015625t-1.748291015625,0.69287109375t-1.877197265625,0.217529296875q-0.98291015625,0-2.01416015625-0.394775390625t-1.85302734375-1.087646484375t-1.353515625-1.619384765625t-0.53173828125-2.006103515625z M189.47770019531,51.12060546875q0-0.322265625,0.49951171875-0.459228515625t0.82177734375-0.136962890625q0.37060546875,0,0.813720703125,0.0966796875t0.539794921875,0.49951171875q0.46728515625,1.88525390625,0.717041015625,3.843017578125t0.378662109375,3.939697265625t0.20947265625,3.939697265625t0.17724609375,3.875244140625q0.43505859375-1.91748046875,0.894287109375-3.810791015625t1.200439453125-3.778564453125l0-1.2890625q0-0.82177734375,0.572021484375-1.184326171875t1.538818359375-0.362548828125q0.0966796875,0,0.443115234375,0.04833984375t0.346435546875,0.322265625q-0.064453125,0.193359375-0.153076171875,0.37060546875t-0.088623046875,0.38671875q0,2.44921875,0.580078125,5.019287109375t1.14404296875,5.003173828125q0.322265625-2.07861328125,0.7412109375-4.14111328125t0.8701171875-4.10888671875q0.59619140625-2.7392578125,0.910400390625-4.552001953125t0.59619140625-2.8681640625t0.6123046875-1.49853515625t0.926513671875-0.443115234375q0.37060546875-0.0322265625,0.69287109375,0.12890625t0.2578125,0.53173828125q-1.16015625,5.607421875-2.167236328125,11.2470703125t-2.054443359375,11.279296875q0,0.322265625,0.11279296875,0.75732421875t0.11279296875,0.7734375q0,0.193359375-0.17724609375,0.322265625t-0.427001953125,0.217529296875t-0.5478515625,0.120849609375t-0.523681640625,0.0322265625q-0.49951171875,0-1.04736328125-0.153076171875t-0.708984375-0.878173828125q-0.56396484375-2.513671875-1.039306640625-5.051513671875t-0.878173828125-5.115966796875q-0.12890625,0.59619140625-0.24169921875,1.20849609375t-0.20947265625,1.24072265625q-0.46728515625,2.7392578125-1.03125,5.478515625t-0.56396484375,5.54296875q0,0.69287109375-0.2900390625,0.894287109375t-0.98291015625,0.201416015625q-0.53173828125,0-0.90234375-0.17724609375q-0.2900390625-0.1611328125-0.5478515625-0.2900390625q-0.2255859375-0.12890625-0.410888671875-0.298095703125t-0.185302734375-0.330322265625q-0.2578125-3.49658203125-0.362548828125-6.94482421875t-0.233642578125-6.94482421875q-0.12890625-3.14208984375-0.378662109375-6.276123046875t-0.555908203125-6.227783203125z M208.95333984375,75.12939453125q0-0.0966796875,0.064453125-0.684814453125t0.169189453125-1.43408203125t0.233642578125-1.82080078125t0.2255859375-1.844970703125t0.169189453125-1.53076171875t0.072509765625-0.88623046875q-0.12890625-0.064453125-0.314208984375-0.185302734375t-0.185302734375-0.281982421875q0-0.2255859375,0.217529296875-0.362548828125t0.378662109375-0.201416015625q0.064453125-0.82177734375,0.1611328125-2.2880859375t0.298095703125-3.166259765625t0.56396484375-3.4482421875t0.958740234375-3.17431640625t1.43408203125-2.328369140625t2.0625-0.90234375t2.0302734375,0.7734375t1.313232421875,2.01416015625t0.7734375,2.75537109375t0.40283203125,3.01318359375t0.169189453125,2.8037109375t0.064453125,2.0947265625q0.0322265625,0.49951171875,0.24169921875,0.668701171875t0.459228515625,0.233642578125t0.451171875,0.14501953125t0.201416015625,0.40283203125q0,0.37060546875-0.451171875,0.515625t-0.708984375,0.17724609375q0.1611328125,2.01416015625,0.443115234375,3.9638671875t0.749267578125,3.931640625q0.064453125,0.37060546875,0.17724609375,0.749267578125t0.11279296875,0.733154296875q0,0.2578125-0.17724609375,0.427001953125t-0.459228515625,0.265869140625t-0.56396484375,0.12890625t-0.475341796875,0.0322265625q-0.72509765625,0-1.224609375-0.27392578125t-0.66064453125-1.04736328125q-0.43505859375-2.07861328125-0.85400390625-4.36669921875q-0.3544921875-1.98193359375-0.3544921875-3.85107421875q0-0.2900390625,0.01611328125-0.580078125q-1.353515625,0-2.72314453125,0.064453125t-2.62646484375,0.4833984375q-0.0322265625,0.43505859375-0.1611328125,1.6435546875t-0.2900390625,2.59423828125t-0.330322265625,2.650634765625t-0.201416015625,1.796630859375q-0.0322265625,0.2255859375-0.330322265625,0.427001953125t-0.64453125,0.217529296875t-0.6123046875-0.217529296875t-0.265869140625-0.829833984375z M211.9665234375,65.36474609375q1.2568359375-0.2900390625,2.521728515625-0.33837890625t2.553955078125-0.11279296875q-0.064453125-0.40283203125-0.0322265625-0.829833984375t0.0322265625-0.862060546875q0-0.95068359375-0.04833984375-2.20751953125t-0.14501953125-2.5458984375t-0.249755859375-2.537841796875t-0.346435546875-2.2236328125t-0.410888671875-1.554931640625t-0.475341796875-0.580078125q-0.49951171875,0.0322265625-0.942626953125,0.862060546875t-0.8056640625,2.11083984375t-0.66064453125,2.8681640625t-0.49951171875,3.101806640625t-0.330322265625,2.81982421875t-0.1611328125,2.0302734375z M225.19020996094,53.08642578125q0-1.1279296875,0.38671875-1.5146484375t1.07958984375-0.38671875q0.193359375,0,0.410888671875,0.0322265625t0.410888671875,0.0966796875q1.07958984375-0.20947265625,2.04638671875-0.20947265625q1.56298828125,0,2.8359375,0.5478515625q2.04638671875,0.8701171875,3.3837890625,2.578125t1.9658203125,4.01220703125t0.62841796875,4.72119140625q0,1.353515625-0.185302734375,2.81982421875t-0.717041015625,2.72314453125q-0.46728515625,1.1279296875-1.2890625,2.360595703125t-1.861083984375,2.33642578125t-2.23974609375,1.93359375t-2.425048828125,1.119873046875l0,0.12890625q0,0.322265625-0.169189453125,0.523681640625t-0.410888671875,0.30615234375t-0.555908203125,0.136962890625t-0.588134765625,0.0322265625q-0.1611328125,0-0.459228515625-0.0322265625t-0.580078125-0.120849609375t-0.475341796875-0.233642578125t-0.193359375-0.40283203125q0-2.9326171875-0.153076171875-5.873291015625t-0.346435546875-5.88134765625t-0.346435546875-5.873291015625t-0.153076171875-5.88134765625z M228.23562011719,52.2646484375q0.1611328125,1.546875,0.20947265625,3.085693359375t0.14501953125,3.085693359375q0.2578125,3.99609375,0.59619140625,7.951904296875t0.40283203125,7.951904296875q1.546875-1.01513671875,2.650634765625-2.3203125t1.812744140625-2.8359375t1.039306640625-3.214599609375t0.330322265625-3.472412109375q0-1.2890625-0.2255859375-2.8359375t-0.7734375-2.98095703125t-1.474365234375-2.59423828125t-2.312255859375-1.65966796875q-0.2900390625-0.0966796875-0.700927734375-0.1611328125t-1.313232421875-0.064453125q-0.0966796875,0-0.193359375,0.0322265625t-0.193359375,0.0322265625z M241.52375976562,75.12939453125q0-0.0966796875,0.064453125-0.684814453125t0.169189453125-1.43408203125t0.233642578125-1.82080078125t0.2255859375-1.844970703125t0.169189453125-1.53076171875t0.072509765625-0.88623046875q-0.12890625-0.064453125-0.314208984375-0.185302734375t-0.185302734375-0.281982421875q0-0.2255859375,0.217529296875-0.362548828125t0.378662109375-0.201416015625q0.064453125-0.82177734375,0.1611328125-2.2880859375t0.298095703125-3.166259765625t0.56396484375-3.4482421875t0.958740234375-3.17431640625t1.43408203125-2.328369140625t2.0625-0.90234375t2.0302734375,0.7734375t1.313232421875,2.01416015625t0.7734375,2.75537109375t0.40283203125,3.01318359375t0.169189453125,2.8037109375t0.064453125,2.0947265625q0.0322265625,0.49951171875,0.24169921875,0.668701171875t0.459228515625,0.233642578125t0.451171875,0.14501953125t0.201416015625,0.40283203125q0,0.37060546875-0.451171875,0.515625t-0.708984375,0.17724609375q0.1611328125,2.01416015625,0.443115234375,3.9638671875t0.749267578125,3.931640625q0.064453125,0.37060546875,0.17724609375,0.749267578125t0.11279296875,0.733154296875q0,0.2578125-0.17724609375,0.427001953125t-0.459228515625,0.265869140625t-0.56396484375,0.12890625t-0.475341796875,0.0322265625q-0.72509765625,0-1.224609375-0.27392578125t-0.66064453125-1.04736328125q-0.43505859375-2.07861328125-0.85400390625-4.36669921875q-0.3544921875-1.98193359375-0.3544921875-3.85107421875q0-0.2900390625,0.01611328125-0.580078125q-1.353515625,0-2.72314453125,0.064453125t-2.62646484375,0.4833984375q-0.0322265625,0.43505859375-0.1611328125,1.6435546875t-0.2900390625,2.59423828125t-0.330322265625,2.650634765625t-0.201416015625,1.796630859375q-0.0322265625,0.2255859375-0.330322265625,0.427001953125t-0.64453125,0.217529296875t-0.6123046875-0.217529296875t-0.265869140625-0.829833984375z M244.53694335937,65.36474609375q1.2568359375-0.2900390625,2.521728515625-0.33837890625t2.553955078125-0.11279296875q-0.064453125-0.40283203125-0.0322265625-0.829833984375t0.0322265625-0.862060546875q0-0.95068359375-0.04833984375-2.20751953125t-0.14501953125-2.5458984375t-0.249755859375-2.537841796875t-0.346435546875-2.2236328125t-0.410888671875-1.554931640625t-0.475341796875-0.580078125q-0.49951171875,0.0322265625-0.942626953125,0.862060546875t-0.8056640625,2.11083984375t-0.66064453125,2.8681640625t-0.49951171875,3.101806640625t-0.330322265625,2.81982421875t-0.1611328125,2.0302734375z"/></svg>
